<?xml version="1.0" encoding="utf-8"?>
<!-- Generator: Adobe Illustrator 24.2.3, SVG Export Plug-In . SVG Version: 6.00 Build 0)  -->
<!DOCTYPE svg PUBLIC "-//W3C//DTD SVG 1.0//EN" "http://www.w3.org/TR/2001/REC-SVG-20010904/DTD/svg10.dtd" [
	<!ENTITY st0 "fill:#FF7900;">
]>
<svg version="1.0" id="Layer_1" xmlns="http://www.w3.org/2000/svg" xmlns:xlink="http://www.w3.org/1999/xlink" x="0px" y="0px"
	 viewBox="0 0 800 600" style="enable-background:new 0 0 800 600;" xml:space="preserve">
<g>
	<path style="&st0;" d="M430.84,274.2c-14.87,0-29.7,0.16-44.53-0.1c-4.09-0.07-8.39-0.81-12.18-2.3
		c-6.85-2.69-9.83-8.67-8.93-15.61c0.93-7.14,4.07-13.6,12.27-15.1c4.11-0.76,8.36-0.91,12.55-0.94c15.76-0.09,31.52-0.1,47.27,0.05
		c4.85,0.05,7.17-1.91,7.73-6.76c0.67-5.82,0.68-12.16,3.17-17.19c1.83-3.69,7.19-5.64,10.97-8.36c2.73,3.83,5.61,7.58,8.11,11.55
		c0.63,1.01,0.15,2.76,0.08,4.16c-0.86,18.34-3.13,16.94,16.74,16.94c19.14,0,38.29-0.56,57.43-0.38
		c9.69,0.09,15.94,6.1,18.03,15.86c1.18,5.53-4.53,14.27-11.64,16.94c-2.78,1.05-6.02,1.19-9.05,1.21
		c-14.92,0.11-29.85,0.02-44.77,0.06c-3.02,0.01-6.04,0.31-11.1,0.6c2.31,4.63,3.83,7.98,5.6,11.19
		c13.23,23.91,31.62,42.01,57.55,52.01c11.03,4.25,15.04,11.38,12.39,19.59c-3.77,11.64-11.68,15.59-23.56,11.43
		c-30.51-10.69-52.75-31.47-70.15-58c-4.42-6.74-8.39-13.78-13.41-22.09c-2.34,4.18-3.96,6.99-5.5,9.85
		c-32.85,60.71-82.07,102.32-148.78,119.57c-77.58,20.06-146.89-0.09-207.09-52.05C78.4,356.25,68.26,344.39,57.83,333
		c-3.83-4.19-6.97-6.02-11.95-2.11c-2.17,1.7-4.9,2.74-7.45,3.91c-5.75,2.64-11.36,2.86-14.46-3.59c-3.04-6.34,1.62-9.43,6.29-12.74
		c10.46-7.4,20.68-15.17,30.75-23.1c4.28-3.37,9.11-5.34,12.55-0.89c2.1,2.72,2.14,8.25,1.04,11.89c-1.21,4.02-7.39,7.88-6.77,10.81
		c1.08,5.04,5.41,9.61,8.99,13.86c31.97,37.95,72.26,62.78,121.04,71.35c65.07,11.43,123.69-5,175.04-46.53
		c24.62-19.91,44.36-43.84,56.9-73.24c0.66-1.54,1.21-3.13,1.68-4.73C431.64,277.41,431.33,276.81,430.84,274.2z"/>
	<path style="&st0;" d="M649.14,192.66c16.89,0,33.77-0.16,50.66,0.08c6.26,0.09,8.66-2.48,8.37-8.55
		c-0.23-4.77-0.14-9.58,0.11-14.35c0.52-9.79,6.5-16.26,15.37-16.93c8.49-0.64,15.36,4.56,17.28,13.88
		c1.01,4.9,1.62,10.1,1.12,15.04c-0.84,8.4,1.87,12.12,10.61,10.94c2.73-0.37,5.64,0.07,8.39,0.59c8.18,1.54,15.28,9.78,14.94,17.03
		c-0.37,7.87-8.19,15.58-16.66,16.41c-17.81,1.75-17.85,1.75-17.84,20.32c0.03,27.02,0.24,54.04,0.14,81.06
		c-0.06,15.78-7.99,24.96-24.49,20.37c-8.11-2.26-16.36-4.16-24.26-7c-9.15-3.28-14.97-12.38-13.27-19.28
		c1.77-7.17,10.6-12.44,20.52-10.9c6.66,1.03,7.89-1.77,7.89-7.18c0.01-22.8,0.2-45.6,0.02-68.4c-0.02-2.72-1.92-5.42-2.95-8.12
		c-1.9,2.39-4.64,4.5-5.56,7.22c-11.87,35.11-29.04,66.63-61.03,87.43c-11.22,7.29-23.65,12.85-35.9,18.37
		c-7.85,3.54-17.75-0.85-20.83-7.92c-3.8-8.73-0.35-18.8,8.7-22.42c27.33-10.92,48.79-28.65,63.69-54.02
		c3.82-6.5,6.65-13.59,9.74-20.5c3-6.69,0.39-9.12-6.62-9.05c-20.26,0.2-40.53,0.21-60.8-0.05c-9.27-0.12-15.98-6.9-16.64-15.79
		c-0.64-8.69,4.57-15.55,13.63-17.56c2.71-0.6,5.57-0.7,8.37-0.71C617.62,192.63,633.38,192.66,649.14,192.66z"/>
	<path style="&st0;" d="M217.83,311.9c0.16-3.32,0.44-6.32,0.44-9.32c0.04-40.22,0.03-80.43,0.07-120.65
		c0.01-14.41,6.63-22.3,18.41-22.14c11.45,0.15,18.9,8.81,18.91,22.2c0.03,47.53,0.04,95.06-0.01,142.59
		c-0.02,18.53-11.31,27.66-29.19,22.7c-9.27-2.58-18.38-6.44-26.81-11.09c-5.87-3.24-9.05-9.49-6.04-16.65
		c2.95-7.01,8.74-8.89,15.96-7.7C211.98,312.24,214.51,311.9,217.83,311.9z"/>
	<path style="&st0;" d="M462.39,168.2c19.12,0,38.23-0.05,57.35,0.04c4.2,0.02,8.44,0.24,12.57,0.89
		c7.26,1.14,13.56,7.85,13.45,15.17c-0.12,7.51-3.43,13.83-11.13,16.18c-4.22,1.29-8.84,1.74-13.28,1.75
		c-39.91,0.11-79.81,0.16-119.72-0.15c-5.11-0.04-11.7-0.76-14.92-3.91c-3.83-3.74-6.71-10.55-6.46-15.86
		c0.33-7.28,5.61-13.1,13.87-13.37c16.28-0.52,32.58-0.55,48.88-0.73C449.45,168.14,455.92,168.2,462.39,168.2z"/>
	<path style="&st0;" d="M181.77,258.59c-0.27,2.03-0.34,4.89-1.07,7.55c-2.95,10.69-11.26,18.55-20.93,19.35
		c-10.91,0.9-17.83-5.45-22.93-14.08c-7.13-12.08-2.1-32.42,9.62-39.93c14.13-9.05,32.29,1.13,34.91,19.63
		C181.69,253.32,181.62,255.58,181.77,258.59z"/>
	<path style="&st0;" d="M335.6,261.86c-1.71,4.18-2.83,10.78-6.54,15.23c-10.54,12.66-23.13,14.21-35.05,1.03
		c-9.2-10.17-9.34-27.27-1.28-38.39c5.66-7.81,13.17-11.39,22.66-9.55c9.52,1.85,14.77,8.84,17.94,17.28
		C334.79,251.31,334.71,255.74,335.6,261.86z"/>
</g>
</svg>
